bw_sq_120_01
version=1
nRows=20
nColumns=46
inDegrees=yes
endheader
time	ground_force3_vx	ground_force3_vy	ground_force3_vz	ground_force3_px	ground_force3_py	ground_force3_pz	ground_torque3_x	ground_torque3_y	ground_torque3_z	ground_force5_vx	ground_force5_vy	ground_force5_vz	ground_force5_px	ground_force5_py	ground_force5_pz	ground_torque5_x	ground_torque5_y	ground_torque5_z	ground_force4_vx	ground_force4_vy	ground_force4_vz	ground_force4_px	ground_force4_py	ground_force4_pz	ground_torque4_x	ground_torque4_y	ground_torque4_z	ground_force1_vx	ground_force1_vy	ground_force1_vz	ground_force1_px	ground_force1_py	ground_force1_pz	ground_torque1_x	ground_torque1_y	ground_torque1_z	ground_force2_vx	ground_force2_vy	ground_force2_vz	ground_force2_px	ground_force2_py	ground_force2_pz	ground_torque2_x	ground_torque2_y	ground_torque2_z
2.737000	-0.000000	-0.000000	0.000000	0.200000	0.000000	-0.300000	0.000000	0.000000	-0.000000	3.961039	280.619202	56.359833	0.199160	0.000000	-1.447657	0.000021	0.082584	0.000003	-2.400261	273.496887	-57.629219	0.209886	0.000000	-0.949351	0.000016	-1.973647	0.000002	-0.000000	-0.000000	0.000000	0.200000	0.000000	0.904000	0.000000	0.000000	-0.000000	-0.000000	-0.000000	0.000000	0.400000	0.000000	0.302000	0.000000	0.000000	-0.000000	
2.738000	-0.000000	-0.000000	0.000000	0.200000	0.000000	-0.300000	0.000000	0.000000	-0.000000	4.443658	278.068420	56.680565	0.199786	0.000000	-1.446191	0.000021	0.035995	0.000004	-2.400262	273.823181	-58.113880	0.209464	0.000000	-0.947807	0.000023	-2.055240	0.000006	-0.000000	-0.000000	0.000000	0.200000	0.000000	0.904000	0.000000	0.000000	-0.000000	-0.000000	-0.000000	0.000000	0.400000	0.000000	0.302000	0.000000	0.000000	-0.000000	
2.739000	-0.000000	-0.000000	0.000000	0.200000	0.000000	-0.300000	0.000000	0.000000	-0.000000	4.604362	278.066772	56.841438	0.199266	0.000000	-1.446164	0.000010	0.126444	0.000004	-3.368062	271.902496	-57.469704	0.209063	0.000000	-0.948480	0.000011	-1.909007	0.000004	-0.000000	-0.000000	0.000000	0.200000	0.000000	0.904000	0.000000	0.000000	-0.000000	-0.000000	-0.000000	0.000000	0.400000	0.000000	0.302000	0.000000	0.000000	-0.000000	
2.740000	-0.000000	-0.000000	0.000000	0.200000	0.000000	-0.300000	0.000000	0.000000	-0.000000	4.282955	279.345642	56.841438	0.199758	0.000000	-1.447314	0.000028	0.010664	0.000006	-3.208562	273.495239	-57.468685	0.210313	0.000000	-0.948870	0.000019	-1.901617	0.000001	-0.000000	-0.000000	0.000000	0.200000	0.000000	0.904000	0.000000	0.000000	-0.000000	-0.000000	-0.000000	0.000000	0.400000	0.000000	0.302000	0.000000	0.000000	-0.000000	
2.741000	-0.000000	-0.000000	0.000000	0.200000	0.000000	-0.300000	0.000000	0.000000	-0.000000	4.603852	279.025391	57.002312	0.199129	0.000000	-1.447885	0.000021	0.210123	-0.000000	-1.748369	272.222382	-58.110825	0.209206	0.000000	-0.948309	0.000012	-1.788472	-0.000001	-0.000000	-0.000000	0.000000	0.200000	0.000000	0.904000	0.000000	0.000000	-0.000000	-0.000000	-0.000000	0.000000	0.400000	0.000000	0.302000	0.000000	0.000000	-0.000000	
2.742000	-0.000000	-0.000000	0.000000	0.200000	0.000000	-0.300000	0.000000	0.000000	-0.000000	4.925768	277.748199	57.162842	0.198908	0.000000	-1.446709	0.000009	0.227355	0.000000	-4.345127	272.219696	-57.790771	0.208725	0.000000	-0.949165	0.000019	-2.098529	0.000004	-0.000000	-0.000000	0.000000	0.200000	0.000000	0.904000	0.000000	0.000000	-0.000000	-0.000000	-0.000000	0.000000	0.400000	0.000000	0.302000	0.000000	0.000000	-0.000000	
2.743000	-0.000000	-0.000000	0.000000	0.200000	0.000000	-0.300000	0.000000	0.000000	-0.000000	4.282955	279.018433	56.842117	0.197981	0.000000	-1.447034	0.000006	0.190061	0.000003	-2.886477	272.860138	-57.630241	0.209255	0.000000	-0.949018	0.000013	-2.059400	0.000003	-0.000000	-0.000000	0.000000	0.200000	0.000000	0.904000	0.000000	0.000000	-0.000000	-0.000000	-0.000000	0.000000	0.400000	0.000000	0.302000	0.000000	0.000000	-0.000000	
2.744000	-0.000000	-0.000000	0.000000	0.200000	0.000000	-0.300000	0.000000	0.000000	-0.000000	4.121742	278.705872	57.324394	0.198906	0.000000	-1.447987	0.000017	0.176480	0.000003	-3.529104	271.583954	-57.151695	0.208613	0.000000	-0.948710	0.000020	-2.051589	0.000004	-0.000000	-0.000000	0.000000	0.200000	0.000000	0.904000	0.000000	0.000000	-0.000000	-0.000000	-0.000000	0.000000	0.400000	0.000000	0.302000	0.000000	0.000000	-0.000000	
2.745000	-0.000000	-0.000000	0.000000	0.200000	0.000000	-0.300000	0.000000	0.000000	-0.000000	4.282445	278.700867	56.360176	0.197837	0.000000	-1.448156	0.000043	0.275975	0.000005	-3.532192	270.618225	-57.467667	0.209358	0.000000	-0.949157	0.000005	-1.902005	0.000002	-0.000000	-0.000000	0.000000	0.200000	0.000000	0.904000	0.000000	0.000000	-0.000000	-0.000000	-0.000000	0.000000	0.400000	0.000000	0.302000	0.000000	0.000000	-0.000000	
2.746000	-0.000000	-0.000000	0.000000	0.200000	0.000000	-0.300000	0.000000	0.000000	-0.000000	4.443658	277.424286	56.842453	0.198128	0.000000	-1.448702	0.000041	0.254136	0.000002	-3.533737	271.896423	-57.469704	0.210177	0.000000	-0.948472	0.000018	-1.999254	0.000004	-0.000000	-0.000000	0.000000	0.200000	0.000000	0.904000	0.000000	0.000000	-0.000000	-0.000000	-0.000000	0.000000	0.400000	0.000000	0.302000	0.000000	0.000000	-0.000000	
2.747000	-0.000000	-0.000000	0.000000	0.200000	0.000000	-0.300000	0.000000	0.000000	-0.000000	5.249722	277.107086	57.002987	0.197864	0.000000	-1.446161	-0.000000	0.146942	0.000003	-2.722346	270.621246	-56.662956	0.208933	0.000000	-0.949019	0.000001	-1.958045	0.000003	-0.000000	-0.000000	0.000000	0.200000	0.000000	0.904000	0.000000	0.000000	-0.000000	-0.000000	-0.000000	0.000000	0.400000	0.000000	0.302000	0.000000	0.000000	-0.000000	
2.748000	-0.000000	-0.000000	0.000000	0.200000	0.000000	-0.300000	0.000000	0.000000	-0.000000	4.605380	278.064087	56.359833	0.198438	0.000000	-1.448024	0.000017	0.093264	0.000000	-3.532192	271.900146	-56.987083	0.208744	0.000000	-0.948856	0.000018	-2.038969	0.000002	-0.000000	-0.000000	0.000000	0.200000	0.000000	0.904000	0.000000	0.000000	-0.000000	-0.000000	-0.000000	0.000000	0.400000	0.000000	0.302000	0.000000	0.000000	-0.000000	
2.749000	-0.000000	-0.000000	0.000000	0.200000	0.000000	-0.300000	0.000000	0.000000	-0.000000	4.927806	277.744537	55.556149	0.197804	0.000000	-1.448320	0.000013	0.059969	0.000002	-3.210106	271.896790	-56.340866	0.209682	0.000000	-0.946930	0.000020	-1.999927	0.000005	-0.000000	-0.000000	0.000000	0.200000	0.000000	0.904000	0.000000	0.000000	-0.000000	-0.000000	-0.000000	0.000000	0.400000	0.000000	0.302000	0.000000	0.000000	-0.000000	
2.750000	-0.000000	-0.000000	0.000000	0.200000	0.000000	-0.300000	0.000000	0.000000	-0.000000	4.283464	276.150421	56.359833	0.197817	0.000000	-1.447633	0.000011	0.112040	0.000005	-3.857366	271.262360	-56.663975	0.208405	0.000000	-0.950271	0.000012	-2.066574	0.000000	-0.000000	-0.000000	0.000000	0.200000	0.000000	0.904000	0.000000	0.000000	-0.000000	-0.000000	-0.000000	0.000000	0.400000	0.000000	0.302000	0.000000	0.000000	-0.000000	
2.751000	-0.000000	-0.000000	0.000000	0.200000	0.000000	-0.300000	0.000000	0.000000	-0.000000	4.283464	276.787201	56.359833	0.197831	0.000000	-1.445536	0.000001	0.120244	0.000005	-3.533737	272.218689	-56.018776	0.209166	0.000000	-0.948403	0.000018	-2.012363	0.000002	-0.000000	-0.000000	0.000000	0.200000	0.000000	0.904000	0.000000	0.000000	-0.000000	-0.000000	-0.000000	0.000000	0.400000	0.000000	0.302000	0.000000	0.000000	-0.000000	
2.752000	-0.000000	-0.000000	0.000000	0.200000	0.000000	-0.300000	0.000000	0.000000	-0.000000	4.122760	276.468628	56.521385	0.197927	0.000000	-1.448340	0.000026	0.158510	0.000005	-3.530648	271.579224	-56.984024	0.208886	0.000000	-0.950041	0.000014	-1.846133	0.000006	-0.000000	-0.000000	0.000000	0.200000	0.000000	0.904000	0.000000	0.000000	-0.000000	-0.000000	-0.000000	0.000000	0.400000	0.000000	0.302000	0.000000	0.000000	-0.000000	
2.753000	-0.000000	-0.000000	0.000000	0.200000	0.000000	-0.300000	0.000000	0.000000	-0.000000	4.122760	277.425964	56.199638	0.197519	0.000000	-1.448812	0.000019	0.140204	0.000002	-3.047519	271.900146	-55.700768	0.208835	0.000000	-0.948632	0.000006	-2.177262	0.000004	-0.000000	-0.000000	0.000000	0.200000	0.000000	0.904000	0.000000	0.000000	-0.000000	-0.000000	-0.000000	0.000000	0.400000	0.000000	0.302000	0.000000	0.000000	-0.000000	
2.754000	-0.000000	-0.000000	0.000000	0.200000	0.000000	-0.300000	0.000000	0.000000	-0.000000	4.444167	276.149414	56.520370	0.197847	0.000000	-1.447159	0.000048	0.134714	0.000006	-3.368062	269.979736	-56.825531	0.208538	0.000000	-0.950078	0.000026	-1.939017	0.000001	-0.000000	-0.000000	0.000000	0.200000	0.000000	0.904000	0.000000	0.000000	-0.000000	-0.000000	-0.000000	0.000000	0.400000	0.000000	0.302000	0.000000	0.000000	-0.000000	
2.755000	-0.000000	-0.000000	0.000000	0.200000	0.000000	-0.300000	0.000000	0.000000	-0.000000	3.317206	273.276428	55.556824	0.196080	0.000000	-1.447858	0.000029	0.274008	0.000004	-3.852733	269.658203	-55.858246	0.208905	0.000000	-0.948824	0.000018	-1.837423	0.000002	-0.000000	-0.000000	0.000000	0.200000	0.000000	0.904000	0.000000	0.000000	-0.000000	-0.000000	-0.000000	0.000000	0.400000	0.000000	0.302000	0.000000	0.000000	-0.000000	
2.756000	-0.000000	-0.000000	0.000000	0.200000	0.000000	-0.300000	0.000000	0.000000	-0.000000	3.639122	275.509644	55.878906	0.196586	0.000000	-1.448037	0.000017	0.341521	-0.000000	-4.019953	271.896423	-56.181351	0.209515	0.000000	-0.948710	0.000013	-2.058379	0.000004	-0.000000	-0.000000	0.000000	0.200000	0.000000	0.904000	0.000000	0.000000	-0.000000	-0.000000	-0.000000	0.000000	0.400000	0.000000	0.302000	0.000000	0.000000	-0.000000	
